<svg width="13" height="11" viewBox="0 0 13 11" fill="none" xmlns="http://www.w3.org/2000/svg">
<path fill-rule="evenodd" clip-rule="evenodd" d="M9.57542 6.15867L6.32282 9.4475C6.02192 9.75199 6.02192 10.2454 6.32282 10.5494C6.62373 10.8539 7.11136 10.8539 7.41277 10.5494L11.9552 5.95584C12.1095 5.79975 12.1836 5.59435 12.1795 5.38948C12.1836 5.18357 12.1095 4.97767 11.9552 4.82157L7.41277 0.227985C7.11136 -0.0759949 6.62373 -0.0759949 6.32282 0.227985C6.02192 0.532478 6.02192 1.02593 6.32282 1.32991L9.57542 4.61926H0.762453C0.342305 4.61926 0.00131512 4.9638 0.00131512 5.38845C0.00131512 5.81361 0.342305 6.15867 0.762453 6.15867H9.57542Z" fill="#464B68"/>
</svg>
