<svg width="40" height="40" viewBox="0 0 40 40" fill="none" xmlns="http://www.w3.org/2000/svg">
<g clip-path="url(#clip0_13739_38690)">
<rect width="40" height="40" rx="5.92593" fill="none"/>
<path d="M32.6709 21.6955C32.9605 21.5036 33.2373 21.2895 33.4986 21.0544C34.1251 20.4905 34.1251 19.5081 33.4986 18.9443C32.1137 17.6979 30.2943 17.0461 28.433 17.1295L24.9461 17.2859L18.7378 9.18808C18.4855 8.85902 18.0944 8.66602 17.6797 8.66602H15.1481C14.9164 8.66602 14.7554 8.89655 14.8351 9.11408L17.9466 17.5997L12.7941 17.8307L10.4375 14.8784C10.2478 14.6407 9.96015 14.5023 9.65595 14.5023H7.25781L9.03448 19.5901V20.4089L7.25781 25.4967H9.65595C9.96015 25.4967 10.2478 25.3583 10.4375 25.1205L12.7943 22.1679L17.9466 22.3989L14.8351 30.8846C14.7554 31.1021 14.9164 31.3327 15.1481 31.3327H17.6797C18.0944 31.3327 18.4855 31.1397 18.7378 30.8106L21.3375 27.4196" stroke="#18191D" stroke-width="1.33333" stroke-linecap="round" stroke-linejoin="round"/>
<path d="M29.6667 24.3324C29.6667 25.999 29 26.6657 27.3333 26.6657C25.6667 26.6657 25 25.999 25 24.3324C25 22.6657 25.6667 21.999 27.3333 21.999C29 21.999 29.6667 22.6657 29.6667 24.3324Z" stroke="#18191D" stroke-width="1.33333"/>
<path d="M29.9974 28.667C29.6641 27.167 28.6641 26.667 27.3307 26.667C25.9974 26.667 24.9974 27.167 24.6641 28.667" stroke="#18191D" stroke-width="1.33333" stroke-linecap="round" stroke-linejoin="round"/>
</g>
<defs>
<clipPath id="clip0_13739_38690">
<rect width="40" height="40" rx="5.92593" fill="white"/>
</clipPath>
</defs>
</svg>
