<svg width="40" height="40" viewBox="0 0 40 40" fill="none" xmlns="http://www.w3.org/2000/svg">
<g clip-path="url(#clip0_13739_38679)">
<rect width="40" height="40" rx="5.92593" fill="none"/>
<path d="M13.9974 13.3337C13.9974 15.2384 13.2355 16.0003 11.3307 16.0003C9.426 16.0003 8.66406 15.2384 8.66406 13.3337C8.66406 11.4289 9.426 10.667 11.3307 10.667C13.2355 10.667 13.9974 11.4289 13.9974 13.3337Z" stroke="#18191D" stroke-width="1.33333"/>
<path d="M15.3281 23.3343H13.6615L12.9948 28.6676H9.66146L8.99479 23.3343H7.32812C7.32812 18.6676 7.99526 16.001 11.3283 16.001C12.1453 16.001 12.8021 16.1612 13.3281 16.4718" stroke="#18191D" stroke-width="1.33333" stroke-linecap="round" stroke-linejoin="round"/>
<path d="M26 13.3337C26 15.2384 26.7619 16.0003 28.6667 16.0003C30.5714 16.0003 31.3333 15.2384 31.3333 13.3337C31.3333 11.4289 30.5714 10.667 28.6667 10.667C26.7619 10.667 26 11.4289 26 13.3337Z" stroke="#18191D" stroke-width="1.33333"/>
<path d="M24.6641 23.3343H26.3307L26.9974 28.6676H30.3307L30.9974 23.3343H32.6641C32.6641 18.6676 31.9969 16.001 28.6639 16.001C27.8469 16.001 27.1901 16.1612 26.6641 16.4718" stroke="#18191D" stroke-width="1.33333" stroke-linecap="round" stroke-linejoin="round"/>
<path d="M21.5333 19.308L21.7137 18.6663C21.5129 18.6097 21.2971 18.6506 21.1307 18.7766C20.9643 18.9027 20.8666 19.0993 20.8666 19.308H21.5333ZM23.9948 20.0003L23.8143 20.6421C24.0152 20.6986 24.231 20.6577 24.3973 20.5317C24.5637 20.4057 24.6615 20.2091 24.6615 20.0003H23.9948ZM23.9948 16.0003H24.6615C24.6615 15.7916 24.5637 15.5949 24.3973 15.4689C24.231 15.3429 24.0152 15.3021 23.8143 15.3585L23.9948 16.0003ZM21.5333 16.6927H20.8666C20.8666 16.9013 20.9643 17.098 21.1307 17.2241C21.2971 17.3501 21.5129 17.3909 21.7137 17.3344L21.5333 16.6927ZM16.6615 16.3337C16.6615 16.1496 16.8107 16.0003 16.9948 16.0003V14.667C16.0743 14.667 15.3281 15.4132 15.3281 16.3337H16.6615ZM16.6615 19.667V16.3337H15.3281V19.667H16.6615ZM16.9948 20.0003C16.8107 20.0003 16.6615 19.8511 16.6615 19.667H15.3281C15.3281 20.5875 16.0743 21.3337 16.9948 21.3337V20.0003ZM20.5333 20.0003H16.9948V21.3337H20.5333V20.0003ZM20.8666 19.667C20.8666 19.8511 20.7173 20.0003 20.5333 20.0003V21.3337C21.4537 21.3337 22.1999 20.5875 22.1999 19.667H20.8666ZM20.8666 19.308V19.667H22.1999V19.308H20.8666ZM24.1753 19.3585L21.7137 18.6663L21.3527 19.9498L23.8143 20.6421L24.1753 19.3585ZM23.3281 16.0003V20.0003H24.6615V16.0003H23.3281ZM21.7137 17.3344L24.1753 16.6421L23.8143 15.3585L21.3527 16.0509L21.7137 17.3344ZM20.8666 16.3337V16.6927H22.1999V16.3337H20.8666ZM20.5333 16.0003C20.7173 16.0003 20.8666 16.1496 20.8666 16.3337H22.1999C22.1999 15.4132 21.4537 14.667 20.5333 14.667V16.0003ZM16.9948 16.0003H20.5333V14.667H16.9948V16.0003Z" fill="#18191D"/>
</g>
<defs>
<clipPath id="clip0_13739_38679">
<rect width="40" height="40" rx="5.92593" fill="white"/>
</clipPath>
</defs>
</svg>
