<svg width="40" height="40" viewBox="0 0 40 40" fill="none" xmlns="http://www.w3.org/2000/svg">
<rect width="40" height="40" rx="4" fill="#FF9860" fill-opacity="0.6"/>
<path d="M23.5581 11.5711C22.2429 11.142 20.6353 10.9414 18.7054 10.9414C11.773 10.9414 9 13.5295 9 19.9998C9 26.47 11.773 29.0581 18.7054 29.0581C25.4019 29.0581 28.2172 26.6432 28.4011 20.6468" stroke="#18191D" stroke-width="1.29405" stroke-linecap="round"/>
<path d="M22.5885 18.7064C22.5885 21.4793 21.4793 22.5885 18.7064 22.5885C15.9334 22.5885 14.8242 21.4793 14.8242 18.7064C14.8242 15.9334 15.9334 14.8242 18.7064 14.8242C21.4793 14.8242 22.5885 15.9334 22.5885 18.7064Z" stroke="#18191D" stroke-width="1.29405"/>
<path d="M23.238 28.4131C23.238 23.2369 21.2251 22.5898 18.7089 22.5898C16.1926 22.5898 14.1797 23.2369 14.1797 28.4131" stroke="#18191D" stroke-width="1.29405" stroke-linecap="round" stroke-linejoin="round"/>
<path d="M24.5312 14.5C26.1488 13.5295 26.7958 12.559 27.7664 10.9414C28.7369 12.559 29.3839 13.5295 31.0015 14.5C29.3839 15.4706 28.7369 16.4411 27.7664 18.0587C26.7958 16.4411 26.1488 15.4706 24.5312 14.5Z" stroke="#18191D" stroke-width="1.29405" stroke-linejoin="round"/>
</svg>
