<svg width="40" height="40" viewBox="0 0 40 40" fill="none" xmlns="http://www.w3.org/2000/svg">
<g clip-path="url(#clip0_14060_18543)">
<rect width="40" height="40" rx="5.92593" fill="#FF9860" fill-opacity="0.6"/>
<path d="M29.0026 24.9974C29.0026 26.6641 28.3359 27.3307 26.6693 27.3307C25.0026 27.3307 24.3359 26.6641 24.3359 24.9974C24.3359 23.3307 25.0026 22.6641 26.6693 22.6641C28.3359 22.6641 29.0026 23.3307 29.0026 24.9974Z" stroke="#18191D" stroke-width="1.33333"/>
<path d="M29.3333 29.3359C29 27.8359 28 27.3359 26.6667 27.3359C25.3333 27.3359 24.3333 27.8359 24 29.3359" stroke="#18191D" stroke-width="1.33333" stroke-linecap="round" stroke-linejoin="round"/>
<path d="M15.6667 24.9974C15.6667 26.6641 15 27.3307 13.3333 27.3307C11.6667 27.3307 11 26.6641 11 24.9974C11 23.3307 11.6667 22.6641 13.3333 22.6641C15 22.6641 15.6667 23.3307 15.6667 24.9974Z" stroke="#18191D" stroke-width="1.33333"/>
<path d="M15.9974 29.3359C15.6641 27.8359 14.6641 27.3359 13.3307 27.3359C11.9974 27.3359 10.9974 27.8359 10.6641 29.3359" stroke="#18191D" stroke-width="1.33333" stroke-linecap="round" stroke-linejoin="round"/>
<path d="M17.9974 27.2793C18.6281 27.3145 19.2945 27.3318 19.9974 27.3318C20.7003 27.3318 21.3667 27.3145 21.9974 27.2793M31.0309 21.9984C31.2336 21.2084 31.3307 20.3215 31.3307 19.3318C31.3307 15.572 29.9289 13.2964 26.6641 12.1797M8.96393 21.9984C8.7612 21.2084 8.66406 20.3215 8.66406 19.3318C8.66406 15.572 10.0659 13.2964 13.3307 12.1797" stroke="#18191D" stroke-width="1.33333" stroke-linecap="round"/>
<path d="M21.9958 12.6641V13.9974C21.9958 15.102 21.0908 15.9974 19.9862 15.9974C18.8816 15.9974 17.9766 15.102 17.9766 13.9974V12.6641" stroke="#18191D" stroke-width="1.33333" stroke-linecap="round" stroke-linejoin="round"/>
<path d="M24 11.3359L20 9.33594L16 11.3359L20 13.3359L24 11.3359Z" stroke="#18191D" stroke-width="1.33333" stroke-linecap="round" stroke-linejoin="round"/>
<path d="M16 11.3359V13.3359" stroke="#18191D" stroke-width="1.33333" stroke-linecap="round" stroke-linejoin="round"/>
</g>
<defs>
<clipPath id="clip0_14060_18543">
<rect width="40" height="40" rx="5.92593" fill="white"/>
</clipPath>
</defs>
</svg>
