<svg width="52" height="52" viewBox="0 0 52 52" fill="none" xmlns="http://www.w3.org/2000/svg">
<path d="M32.3333 32.3451C31.9562 30.9354 31.1381 29.6833 29.9987 28.7717C28.8592 27.8602 27.4581 27.3369 26 27.2784C24.5419 27.3369 23.1408 27.8602 22.0014 28.7717C20.8619 29.6833 20.0438 30.9354 19.6667 32.3451M33.6017 12.8384C35.9153 14.1763 37.8371 16.0982 39.175 18.4117M39.175 33.6117C37.8371 35.9253 35.9153 37.8471 33.6017 39.1851M18.4017 39.1851C16.0881 37.8471 14.1663 35.9253 12.8284 33.6117M12.8284 18.4117C14.1663 16.0982 16.0881 14.1763 18.4017 12.8384M22.2 22.2117C22.1893 22.7174 22.2797 23.2201 22.4659 23.6903C22.652 24.1606 22.9301 24.589 23.284 24.9504C23.6378 25.3117 24.0602 25.5988 24.5265 25.7949C24.9927 25.9909 25.4934 26.0918 25.9992 26.0918C26.5049 26.0918 27.0056 25.9909 27.4718 25.7949C27.9381 25.5988 28.3605 25.3117 28.7143 24.9504C29.0682 24.589 29.3463 24.1606 29.5325 23.6903C29.7186 23.2201 29.809 22.7174 29.7983 22.2117C29.7774 21.218 29.3679 20.272 28.6577 19.5766C27.9475 18.8813 26.9931 18.4918 25.9992 18.4918C25.0052 18.4918 24.0508 18.8813 23.3406 19.5766C22.6304 20.272 22.221 21.218 22.2 22.2117ZM22.8333 10.1784C22.8333 11.0182 23.167 11.8237 23.7608 12.4176C24.3547 13.0114 25.1601 13.3451 26 13.3451C26.8399 13.3451 27.6453 13.0114 28.2392 12.4176C28.833 11.8237 29.1667 11.0182 29.1667 10.1784C29.1667 9.33853 28.833 8.53308 28.2392 7.93921C27.6453 7.34535 26.8399 7.01172 26 7.01172C25.1601 7.01172 24.3547 7.34535 23.7608 7.93921C23.167 8.53308 22.8333 9.33853 22.8333 10.1784ZM38.6667 26.0117C38.6667 26.8516 39.0003 27.657 39.5942 28.2509C40.188 28.8448 40.9935 29.1784 41.8333 29.1784C42.6732 29.1784 43.4786 28.8448 44.0725 28.2509C44.6664 27.657 45 26.8516 45 26.0117C45 25.1719 44.6664 24.3664 44.0725 23.7725C43.4786 23.1787 42.6732 22.8451 41.8333 22.8451C40.9935 22.8451 40.188 23.1787 39.5942 23.7725C39.0003 24.3664 38.6667 25.1719 38.6667 26.0117ZM22.8333 41.8451C22.8333 42.6849 23.167 43.4904 23.7608 44.0842C24.3547 44.6781 25.1601 45.0117 26 45.0117C26.8399 45.0117 27.6453 44.6781 28.2392 44.0842C28.833 43.4904 29.1667 42.6849 29.1667 41.8451C29.1667 41.0052 28.833 40.1997 28.2392 39.6059C27.6453 39.012 26.8399 38.6784 26 38.6784C25.1601 38.6784 24.3547 39.012 23.7608 39.6059C23.167 40.1997 22.8333 41.0052 22.8333 41.8451ZM7 26.0117C7 26.8516 7.33363 27.657 7.9275 28.2509C8.52136 28.8448 9.32681 29.1784 10.1667 29.1784C11.0065 29.1784 11.812 28.8448 12.4058 28.2509C12.9997 27.657 13.3333 26.8516 13.3333 26.0117C13.3333 25.1719 12.9997 24.3664 12.4058 23.7725C11.812 23.1787 11.0065 22.8451 10.1667 22.8451C9.32681 22.8451 8.52136 23.1787 7.9275 23.7725C7.33363 24.3664 7 25.1719 7 26.0117Z" stroke="#FF9860" stroke-opacity="0.6" stroke-width="1.97917" stroke-linecap="round" stroke-linejoin="round"/>
<path d="M32.3333 32.3451C31.9562 30.9354 31.1381 29.6833 29.9987 28.7717C28.8592 27.8602 27.4581 27.3369 26 27.2784C24.5419 27.3369 23.1408 27.8602 22.0014 28.7717C20.8619 29.6833 20.0438 30.9354 19.6667 32.3451M22.2 22.2117C22.1893 22.7174 22.2797 23.2201 22.4659 23.6903C22.652 24.1606 22.9301 24.589 23.284 24.9504C23.6378 25.3117 24.0602 25.5988 24.5265 25.7949C24.9927 25.9909 25.4934 26.0918 25.9992 26.0918C26.5049 26.0918 27.0056 25.9909 27.4718 25.7949C27.9381 25.5988 28.3605 25.3117 28.7143 24.9504C29.0682 24.589 29.3463 24.1606 29.5325 23.6903C29.7186 23.2201 29.809 22.7174 29.7983 22.2117C29.7774 21.218 29.3679 20.272 28.6577 19.5766C27.9475 18.8813 26.9931 18.4918 25.9992 18.4918C25.0052 18.4918 24.0508 18.8813 23.3406 19.5766C22.6304 20.272 22.221 21.218 22.2 22.2117ZM22.8333 10.1784C22.8333 11.0182 23.167 11.8237 23.7608 12.4176C24.3547 13.0114 25.1601 13.3451 26 13.3451C26.8399 13.3451 27.6453 13.0114 28.2392 12.4176C28.833 11.8237 29.1667 11.0182 29.1667 10.1784C29.1667 9.33853 28.833 8.53308 28.2392 7.93921C27.6453 7.34535 26.8399 7.01172 26 7.01172C25.1601 7.01172 24.3547 7.34535 23.7608 7.93921C23.167 8.53308 22.8333 9.33853 22.8333 10.1784ZM38.6667 26.0117C38.6667 26.8516 39.0003 27.657 39.5942 28.2509C40.188 28.8448 40.9935 29.1784 41.8333 29.1784C42.6732 29.1784 43.4786 28.8448 44.0725 28.2509C44.6664 27.657 45 26.8516 45 26.0117C45 25.1719 44.6664 24.3664 44.0725 23.7725C43.4786 23.1787 42.6732 22.8451 41.8333 22.8451C40.9935 22.8451 40.188 23.1787 39.5942 23.7725C39.0003 24.3664 38.6667 25.1719 38.6667 26.0117ZM22.8333 41.8451C22.8333 42.6849 23.167 43.4904 23.7608 44.0842C24.3547 44.6781 25.1601 45.0117 26 45.0117C26.8399 45.0117 27.6453 44.6781 28.2392 44.0842C28.833 43.4904 29.1667 42.6849 29.1667 41.8451C29.1667 41.0052 28.833 40.1997 28.2392 39.6059C27.6453 39.012 26.8399 38.6784 26 38.6784C25.1601 38.6784 24.3547 39.012 23.7608 39.6059C23.167 40.1997 22.8333 41.0052 22.8333 41.8451ZM7 26.0117C7 26.8516 7.33363 27.657 7.9275 28.2509C8.52136 28.8448 9.32681 29.1784 10.1667 29.1784C11.0065 29.1784 11.812 28.8448 12.4058 28.2509C12.9997 27.657 13.3333 26.8516 13.3333 26.0117C13.3333 25.1719 12.9997 24.3664 12.4058 23.7725C11.812 23.1787 11.0065 22.8451 10.1667 22.8451C9.32681 22.8451 8.52136 23.1787 7.9275 23.7725C7.33363 24.3664 7 25.1719 7 26.0117Z" stroke="#FF9860" stroke-opacity="0.6" stroke-width="1.97917" stroke-linecap="round" stroke-linejoin="round"/>
</svg>
