<svg width="40" height="40" viewBox="0 0 40 40" fill="none" xmlns="http://www.w3.org/2000/svg">
<g clip-path="url(#clip0_14060_18559)">
<rect width="40" height="40" rx="5.92593" fill="#FF9860" fill-opacity="0.6"/>
<path d="M9.65892 24.2608C10.0262 23.6847 10.6621 23.3359 11.3454 23.3359H28.6517C29.3349 23.3359 29.9709 23.6847 30.3381 24.2608L33.0183 28.4651C33.4427 29.1307 32.9645 30.0026 32.1751 30.0026H7.82192C7.03245 30.0026 6.55433 29.1307 6.97872 28.4651L9.65892 24.2608Z" stroke="#18191D" stroke-width="1.33333" stroke-linejoin="round"/>
<path d="M12 23.3307H28C29.1046 23.3307 30 22.4353 30 21.3307V10.6641C30 9.55953 29.1045 8.66406 28 8.66406H12C10.8954 8.66406 10 9.55953 10 10.6641V21.3307C10 22.4353 10.8954 23.3307 12 23.3307Z" stroke="#18191D" stroke-width="1.33333" stroke-linecap="round" stroke-linejoin="round"/>
<path d="M20.1667 13.9974L19.6649 14.4364C19.7915 14.5811 19.9744 14.6641 20.1667 14.6641V13.9974ZM17.3333 14.3307C17.3333 14.1467 17.4826 13.9974 17.6667 13.9974V12.6641C16.7462 12.6641 16 13.4103 16 14.3307H17.3333ZM17.3333 14.9974V14.3307H16V14.9974H17.3333ZM17.3333 15.3307V14.9974H16V15.3307H17.3333ZM17.3333 17.6641V15.3307H16V17.6641H17.3333ZM17.6667 17.9974C17.4826 17.9974 17.3333 17.8481 17.3333 17.6641H16C16 18.5845 16.7462 19.3307 17.6667 19.3307V17.9974ZM22.3333 17.9974H17.6667V19.3307H22.3333V17.9974ZM22.6667 17.6641C22.6667 17.8481 22.5174 17.9974 22.3333 17.9974V19.3307C23.2538 19.3307 24 18.5845 24 17.6641H22.6667ZM22.6667 14.9974V17.6641H24V14.9974H22.6667ZM22.3333 14.6641C22.5174 14.6641 22.6667 14.8133 22.6667 14.9974H24C24 14.0769 23.2538 13.3307 22.3333 13.3307V14.6641ZM20.1667 14.6641H22.3333V13.3307H20.1667V14.6641ZM19.3804 14.1112L19.6649 14.4364L20.6684 13.5584L20.3839 13.2332L19.3804 14.1112ZM19.1295 13.9974C19.2257 13.9974 19.3171 14.0389 19.3804 14.1112L20.3839 13.2332C20.0674 12.8715 19.6102 12.6641 19.1295 12.6641V13.9974ZM17.6667 13.9974H19.1295V12.6641H17.6667V13.9974Z" fill="#18191D"/>
<path d="M15.5781 27.3359H24.4203" stroke="#18191D" stroke-width="1.33333" stroke-linecap="round"/>
</g>
<defs>
<clipPath id="clip0_14060_18559">
<rect width="40" height="40" rx="5.92593" fill="white"/>
</clipPath>
</defs>
</svg>
