<svg width="52" height="52" viewBox="0 0 52 52" fill="none" xmlns="http://www.w3.org/2000/svg">
<path d="M34.6686 26.0023C36.5534 26.002 38.3868 25.3873 39.8908 24.2513C41.3948 23.1154 42.4876 21.5201 43.0034 19.7072C43.5193 17.8944 43.4301 15.9628 42.7494 14.2052C42.0688 12.4476 40.8337 10.9597 39.2314 9.96716C37.6292 8.97459 35.747 8.53138 33.8702 8.7047C31.9933 8.87802 30.2242 9.65843 28.8308 10.9276C27.4374 12.1969 26.4957 13.8857 26.1484 15.7383C25.8011 17.5908 26.0672 19.506 26.9063 21.1938C27.0645 21.5003 27.1058 21.854 27.0225 22.1888L26.5059 24.1181C26.4548 24.3091 26.4548 24.5102 26.506 24.7012C26.5572 24.8922 26.6577 25.0664 26.7976 25.2062C26.9374 25.346 27.1116 25.4466 27.3026 25.4978C27.4936 25.549 27.6947 25.549 27.8857 25.4979L29.815 24.9813C30.1498 24.898 30.5034 24.9393 30.81 25.0975C32.0091 25.6931 33.3298 26.0028 34.6686 26.0023Z" stroke="#FF9860" stroke-opacity="0.6" stroke-width="3"/>
<path d="M8.67561 22.4195C8.54907 25.7269 9.38632 31.345 15.02 36.9804C16.2459 38.2197 17.6017 39.3233 19.0641 40.2722M11.3295 17.2262C13.7442 14.8115 17.5959 15.1357 19.1299 17.8849L20.2549 19.8991C21.269 21.7192 20.8616 24.1044 19.2634 25.7044C19.2634 25.7044 17.322 27.6441 20.8408 31.1612C24.3562 34.6766 26.296 32.7387 26.296 32.7387C27.8959 31.1387 30.2829 30.7314 32.1012 31.7454L34.1172 32.8721C36.8647 34.4045 37.1889 38.2562 34.7742 40.6726C33.3233 42.1217 31.5448 43.2519 29.5808 43.3247C27.7848 43.3866 25.9903 43.1631 24.2644 42.6626" stroke="#FF9860" stroke-opacity="0.6" stroke-width="3" stroke-linecap="round"/>
</svg>
