<svg width="40" height="40" viewBox="0 0 40 40" fill="none" xmlns="http://www.w3.org/2000/svg">
<g clip-path="url(#clip0_14060_18571)">
<rect width="40" height="40" rx="5.92593" fill="#FF9860" fill-opacity="0.6"/>
<path d="M13.9974 13.3307C13.9974 15.2355 13.2355 15.9974 11.3307 15.9974C9.426 15.9974 8.66406 15.2355 8.66406 13.3307C8.66406 11.426 9.426 10.6641 11.3307 10.6641C13.2355 10.6641 13.9974 11.426 13.9974 13.3307Z" stroke="#18191D" stroke-width="1.33333"/>
<path d="M15.3359 23.3333H13.6693L13.0026 28.6667H9.66927L9.0026 23.3333H7.33594C7.33594 18.6667 8.00307 16 11.3361 16C12.1531 16 12.8099 16.1602 13.3359 16.4708" stroke="#18191D" stroke-width="1.33333" stroke-linecap="round" stroke-linejoin="round"/>
<path d="M26 13.3307C26 15.2355 26.7619 15.9974 28.6667 15.9974C30.5714 15.9974 31.3333 15.2355 31.3333 13.3307C31.3333 11.426 30.5714 10.6641 28.6667 10.6641C26.7619 10.6641 26 11.426 26 13.3307Z" stroke="#18191D" stroke-width="1.33333"/>
<path d="M24.6641 23.3333H26.3307L26.9974 28.6667H30.3307L30.9974 23.3333H32.6641C32.6641 18.6667 31.9969 16 28.6639 16C27.8469 16 27.1901 16.1602 26.6641 16.4708" stroke="#18191D" stroke-width="1.33333" stroke-linecap="round" stroke-linejoin="round"/>
<path d="M23.0984 15.4337C23.4108 15.7461 23.4108 16.2526 23.0984 16.565L18.3307 21.3327H16.6641V19.666L21.4317 14.8984C21.7441 14.586 22.2507 14.586 22.5631 14.8984L23.0984 15.4337Z" stroke="#18191D" stroke-width="1.33333" stroke-linecap="round" stroke-linejoin="round"/>
</g>
<defs>
<clipPath id="clip0_14060_18571">
<rect width="40" height="40" rx="5.92593" fill="white"/>
</clipPath>
</defs>
</svg>
