<svg width="40" height="40" viewBox="0 0 40 40" fill="none" xmlns="http://www.w3.org/2000/svg">
<g clip-path="url(#clip0_9906_40887)">
<rect width="40" height="40" rx="5.92593" fill="#FFCF46" fill-opacity="0.6"/>
<path d="M14.0052 13.3346C14.0052 15.2394 13.2433 16.0013 11.3385 16.0013C9.43381 16.0013 8.67188 15.2394 8.67188 13.3346C8.67188 11.4299 9.43381 10.668 11.3385 10.668C13.2433 10.668 14.0052 11.4299 14.0052 13.3346Z" stroke="#18191D" stroke-width="1.33333"/>
<path d="M15.3359 23.3333H13.6693L13.0026 28.6667H9.66927L9.0026 23.3333H7.33594C7.33594 18.6667 8.00307 16 11.3361 16C12.1531 16 12.8099 16.1602 13.3359 16.4708" stroke="#18191D" stroke-width="1.33333" stroke-linecap="round" stroke-linejoin="round"/>
<path d="M26 13.3346C26 15.2394 26.7619 16.0013 28.6667 16.0013C30.5714 16.0013 31.3333 15.2394 31.3333 13.3346C31.3333 11.4299 30.5714 10.668 28.6667 10.668C26.7619 10.668 26 11.4299 26 13.3346Z" stroke="#18191D" stroke-width="1.33333"/>
<path d="M24.6641 23.3333H26.3307L26.9974 28.6667H30.3307L30.9974 23.3333H32.6641C32.6641 18.6667 31.9969 16 28.6639 16C27.8469 16 27.1901 16.1602 26.6641 16.4708" stroke="#18191D" stroke-width="1.33333" stroke-linecap="round" stroke-linejoin="round"/>
<path d="M23.0984 15.4337C23.4108 15.7461 23.4108 16.2526 23.0984 16.565L18.3307 21.3327H16.6641V19.666L21.4317 14.8984C21.7441 14.586 22.2507 14.586 22.5631 14.8984L23.0984 15.4337Z" stroke="#18191D" stroke-width="1.33333" stroke-linecap="round" stroke-linejoin="round"/>
</g>
<defs>
<clipPath id="clip0_9906_40887">
<rect width="40" height="40" rx="5.92593" fill="white"/>
</clipPath>
</defs>
</svg>
