<svg width="40" height="40" viewBox="0 0 40 40" fill="none" xmlns="http://www.w3.org/2000/svg">
<g clip-path="url(#clip0_10854_76898)">
<rect width="40" height="40" rx="5.92593" fill="#356DF1" fill-opacity="0.4"/>
<path d="M9.65892 24.2569C10.0262 23.6808 10.6621 23.332 11.3454 23.332H28.6517C29.3349 23.332 29.9709 23.6808 30.3381 24.2569L33.0183 28.4612C33.4427 29.1268 32.9645 29.9987 32.1751 29.9987H7.82192C7.03245 29.9987 6.55433 29.1268 6.97872 28.4612L9.65892 24.2569Z" stroke="#18191D" stroke-width="1.33333" stroke-linejoin="round"/>
<path d="M12 23.3346H28C29.1046 23.3346 30 22.4392 30 21.3346V10.668C30 9.56344 29.1045 8.66797 28 8.66797H12C10.8954 8.66797 10 9.56344 10 10.668V21.3346C10 22.4392 10.8954 23.3346 12 23.3346Z" stroke="#18191D" stroke-width="1.33333" stroke-linecap="round" stroke-linejoin="round"/>
<path d="M20.1667 14.0013L19.6649 14.4403C19.7915 14.585 19.9744 14.668 20.1667 14.668V14.0013ZM17.3333 14.3346C17.3333 14.1506 17.4826 14.0013 17.6667 14.0013V12.668C16.7462 12.668 16 13.4142 16 14.3346H17.3333ZM17.3333 15.0013V14.3346H16V15.0013H17.3333ZM17.3333 15.3346V15.0013H16V15.3346H17.3333ZM17.3333 17.668V15.3346H16V17.668H17.3333ZM17.6667 18.0013C17.4826 18.0013 17.3333 17.852 17.3333 17.668H16C16 18.5884 16.7462 19.3346 17.6667 19.3346V18.0013ZM22.3333 18.0013H17.6667V19.3346H22.3333V18.0013ZM22.6667 17.668C22.6667 17.852 22.5174 18.0013 22.3333 18.0013V19.3346C23.2538 19.3346 24 18.5884 24 17.668H22.6667ZM22.6667 15.0013V17.668H24V15.0013H22.6667ZM22.3333 14.668C22.5174 14.668 22.6667 14.8172 22.6667 15.0013H24C24 14.0808 23.2538 13.3346 22.3333 13.3346V14.668ZM20.1667 14.668H22.3333V13.3346H20.1667V14.668ZM19.3804 14.1151L19.6649 14.4403L20.6684 13.5623L20.3839 13.2371L19.3804 14.1151ZM19.1295 14.0013C19.2257 14.0013 19.3171 14.0428 19.3804 14.1151L20.3839 13.2371C20.0674 12.8754 19.6102 12.668 19.1295 12.668V14.0013ZM17.6667 14.0013H19.1295V12.668H17.6667V14.0013Z" fill="#18191D"/>
<path d="M15.5781 27.332H24.4203" stroke="#18191D" stroke-width="1.33333" stroke-linecap="round"/>
</g>
<defs>
<clipPath id="clip0_10854_76898">
<rect width="40" height="40" rx="5.92593" fill="white"/>
</clipPath>
</defs>
</svg>
