<svg width="40" height="40" viewBox="0 0 40 40" fill="none" xmlns="http://www.w3.org/2000/svg">
<g clip-path="url(#clip0_10843_63483)">
<rect width="40" height="40" rx="5.92593" fill="#00B242" fill-opacity="0.4"/>
<g clip-path="url(#clip1_10843_63483)">
<path d="M25.637 14.0291L27.313 14.3641C27.403 14.3821 27.477 14.4481 27.503 14.5371C27.5161 14.5804 27.5173 14.6264 27.5064 14.6702C27.4955 14.714 27.4729 14.7541 27.441 14.7861L26.068 16.1601C25.9035 16.3237 25.681 16.4157 25.449 16.4161H24.31L21.45 19.2771C21.5046 19.4832 21.5146 19.6984 21.4794 19.9086C21.4443 20.1188 21.3647 20.3191 21.2461 20.4962C21.1274 20.6732 20.9724 20.823 20.7914 20.9354C20.6103 21.0479 20.4074 21.1204 20.1961 21.1483C19.9848 21.1762 19.77 21.1587 19.566 21.097C19.362 21.0353 19.1734 20.9309 19.013 20.7907C18.8525 20.6504 18.7237 20.4776 18.6353 20.2837C18.5468 20.0898 18.5007 19.8793 18.5 19.6661C18.5 19.436 18.5529 19.2089 18.6547 19.0024C18.7565 18.796 18.9044 18.6157 19.087 18.4756C19.2697 18.3355 19.4821 18.2394 19.7079 18.1945C19.9336 18.1497 20.1667 18.1574 20.389 18.2171L23.25 15.3551V14.2181C23.25 13.9861 23.342 13.7631 23.506 13.5991L24.88 12.2251C24.912 12.1933 24.9521 12.1707 24.9959 12.1598C25.0398 12.1488 25.0858 12.15 25.129 12.1631C25.218 12.1891 25.284 12.2631 25.302 12.3531L25.637 14.0291Z" fill="black"/>
<path d="M13.9968 19.6687C13.9978 20.5267 14.1828 21.3745 14.5393 22.1548C14.8959 22.9352 15.4156 23.6301 16.0635 24.1925C16.7114 24.7549 17.4724 25.1719 18.2951 25.4152C19.1178 25.6585 19.9832 25.7226 20.8328 25.603C21.6824 25.4835 22.4964 25.1831 23.2201 24.7222C23.9437 24.2613 24.5601 23.6505 25.0276 22.9312C25.4952 22.2118 25.803 21.4005 25.9303 20.552C26.0577 19.7036 26.0015 18.8377 25.7658 18.0127C25.7327 17.9164 25.7195 17.8143 25.7271 17.7126C25.7348 17.611 25.763 17.512 25.8101 17.4217C25.8572 17.3313 25.9222 17.2515 26.0011 17.187C26.0801 17.1226 26.1713 17.0749 26.2693 17.0468C26.3672 17.0188 26.4699 17.0109 26.571 17.0238C26.6721 17.0367 26.7695 17.07 26.8573 17.1217C26.9451 17.1735 27.0214 17.2425 27.0817 17.3247C27.1419 17.4069 27.1848 17.5005 27.2078 17.5997C27.6643 19.1973 27.5776 20.9012 26.9612 22.4441C26.3449 23.987 25.2337 25.2817 23.8022 26.125C22.3706 26.9682 20.6996 27.3124 19.0513 27.1035C17.403 26.8947 15.8707 26.1445 14.6948 24.9707C13.5201 23.7951 12.7691 22.2626 12.5598 20.614C12.3504 18.9653 12.6945 17.2938 13.538 15.8618C14.3815 14.4299 15.6767 13.3186 17.2202 12.7025C18.7637 12.0864 20.4681 12.0003 22.0658 12.4577C22.256 12.5134 22.4165 12.642 22.5122 12.8156C22.6078 12.9892 22.6309 13.1936 22.5763 13.3841C22.5218 13.5747 22.394 13.7359 22.2209 13.8325C22.0479 13.9291 21.8436 13.9533 21.6528 13.8997C20.7593 13.6432 19.8185 13.5977 18.9045 13.7669C17.9905 13.9362 17.1283 14.3154 16.386 14.8748C15.6436 15.4342 15.0414 16.1584 14.6267 16.9904C14.2121 17.8223 13.9965 18.7392 13.9968 19.6687Z" fill="black"/>
<path d="M17.0005 19.6677C17.0005 20.2143 17.1498 20.7505 17.4322 21.2185C17.7147 21.6865 18.1195 22.0684 18.603 22.3232C19.0866 22.578 19.6306 22.696 20.1762 22.6643C20.7219 22.6327 21.2486 22.4527 21.6995 22.1437C22.1503 21.8339 22.5078 21.4068 22.7334 20.9086C22.959 20.4103 23.0441 19.8598 22.9795 19.3167C22.962 19.1849 22.98 19.0508 23.0315 18.9283C23.0831 18.8057 23.1664 18.6992 23.2728 18.6195C23.3793 18.5398 23.505 18.49 23.6371 18.4751C23.7693 18.4602 23.903 18.4808 24.0245 18.5347C24.146 18.588 24.2512 18.6725 24.3293 18.7796C24.4075 18.8868 24.4559 19.0128 24.4695 19.1447C24.5781 20.0728 24.3952 21.0117 23.946 21.8311C23.4968 22.6505 22.8037 23.3098 21.9628 23.7173C21.122 24.1249 20.1751 24.2606 19.2536 24.1056C18.3321 23.9506 17.4817 23.5126 16.8204 22.8524C16.1592 22.1921 15.7199 21.3424 15.5635 20.4211C15.4071 19.4999 15.5414 18.5528 15.9477 17.7113C16.354 16.8698 17.0122 16.1757 17.8309 15.7253C18.6496 15.2748 19.5882 15.0905 20.5165 15.1977C20.6159 15.2069 20.7124 15.2359 20.8005 15.2829C20.8885 15.3299 20.9663 15.3941 21.0293 15.4715C21.0922 15.549 21.1391 15.6383 21.1671 15.7341C21.1951 15.8299 21.2037 15.9303 21.1924 16.0295C21.181 16.1287 21.15 16.2246 21.1012 16.3117C21.0523 16.3987 20.9865 16.4751 20.9078 16.5364C20.829 16.5977 20.7388 16.6427 20.6424 16.6687C20.546 16.6946 20.4454 16.7011 20.3465 16.6877C19.9261 16.6389 19.5002 16.6796 19.0967 16.8071C18.6932 16.9345 18.3212 17.1459 18.0052 17.4274C17.6892 17.7088 17.4363 18.0539 17.2632 18.4401C17.09 18.8262 17.0005 19.2445 17.0005 19.6677Z" fill="black"/>
</g>
</g>
<defs>
<clipPath id="clip0_10843_63483">
<rect width="40" height="40" rx="5.92593" fill="white"/>
</clipPath>
<clipPath id="clip1_10843_63483">
<rect width="16" height="16" fill="white" transform="translate(12 11.668)"/>
</clipPath>
</defs>
</svg>
