<svg width="52" height="52" viewBox="0 0 52 52" fill="none" xmlns="http://www.w3.org/2000/svg">
<path d="M28.0588 31.1818H36.5882V26H28.0588V31.1818ZM24.6471 38.0909V24.2727C24.6471 23.7833 24.8108 23.3734 25.1383 23.0429C25.4659 22.7124 25.8707 22.5466 26.3529 22.5455H38.2941C38.7774 22.5455 39.1829 22.7113 39.5104 23.0429C39.8379 23.3745 40.0011 23.7845 40 24.2727V32.9091C40 33.3985 39.8362 33.809 39.5087 34.1406C39.1812 34.4723 38.7763 34.6375 38.2941 34.6364H28.0588L24.6471 38.0909ZM14.4118 45C13.4735 45 12.6706 44.662 12.0031 43.9861C11.3355 43.3101 11.0011 42.4966 11 41.5455V10.4545C11 9.50455 11.3344 8.69158 12.0031 8.01564C12.6718 7.3397 13.4747 7.00115 14.4118 7H31.4706C32.4088 7 33.2123 7.33855 33.881 8.01564C34.5497 8.69273 34.8835 9.5057 34.8823 10.4545V19.0909H31.4706V10.4545H14.4118V41.5455H31.4706V38.0909H34.8823V41.5455C34.8823 42.4955 34.5486 43.309 33.881 43.9861C33.2134 44.6632 32.41 45.0011 31.4706 45H14.4118ZM22.9412 15.6364C23.4245 15.6364 23.8299 15.4705 24.1575 15.1389C24.485 14.8073 24.6482 14.3973 24.6471 13.9091C24.6459 13.4208 24.4822 13.0109 24.1558 12.6793C23.8294 12.3476 23.4245 12.1818 22.9412 12.1818C22.4578 12.1818 22.053 12.3476 21.7266 12.6793C21.4002 13.0109 21.2364 13.4208 21.2353 13.9091C21.2342 14.3973 21.3979 14.8078 21.7266 15.1406C22.0553 15.4734 22.4601 15.6387 22.9412 15.6364Z" fill="#F1633B" fill-opacity="0.6"/>
</svg>
