<svg width="52" height="52" viewBox="0 0 52 52" fill="none" xmlns="http://www.w3.org/2000/svg">
<path d="M32.3333 32.3431C31.9562 30.9335 31.1381 29.6814 29.9987 28.7698C28.8592 27.8582 27.4581 27.3349 26 27.2764C24.5419 27.3349 23.1408 27.8582 22.0014 28.7698C20.8619 29.6814 20.0438 30.9335 19.6667 32.3431M33.6017 12.8364C35.9153 14.1744 37.8371 16.0962 39.175 18.4098M39.175 33.6098C37.8371 35.9233 35.9153 37.8451 33.6017 39.1831M18.4017 39.1831C16.0881 37.8451 14.1663 35.9233 12.8284 33.6098M12.8284 18.4098C14.1663 16.0962 16.0881 14.1744 18.4017 12.8364M22.2 22.2098C22.1893 22.7154 22.2797 23.2181 22.4659 23.6884C22.652 24.1586 22.9301 24.587 23.284 24.9484C23.6378 25.3098 24.0602 25.5969 24.5265 25.7929C24.9927 25.9889 25.4934 26.0899 25.9992 26.0899C26.5049 26.0899 27.0056 25.9889 27.4718 25.7929C27.9381 25.5969 28.3605 25.3098 28.7143 24.9484C29.0682 24.587 29.3463 24.1586 29.5325 23.6884C29.7186 23.2181 29.809 22.7154 29.7983 22.2098C29.7774 21.216 29.3679 20.2701 28.6577 19.5747C27.9475 18.8793 26.9931 18.4899 25.9992 18.4899C25.0052 18.4899 24.0508 18.8793 23.3406 19.5747C22.6304 20.2701 22.221 21.216 22.2 22.2098ZM22.8333 10.1764C22.8333 11.0163 23.167 11.8217 23.7608 12.4156C24.3547 13.0095 25.1601 13.3431 26 13.3431C26.8399 13.3431 27.6453 13.0095 28.2392 12.4156C28.833 11.8217 29.1667 11.0163 29.1667 10.1764C29.1667 9.33658 28.833 8.53113 28.2392 7.93726C27.6453 7.3434 26.8399 7.00977 26 7.00977C25.1601 7.00977 24.3547 7.3434 23.7608 7.93726C23.167 8.53113 22.8333 9.33658 22.8333 10.1764ZM38.6667 26.0098C38.6667 26.8496 39.0003 27.6551 39.5942 28.2489C40.188 28.8428 40.9935 29.1764 41.8333 29.1764C42.6732 29.1764 43.4786 28.8428 44.0725 28.2489C44.6664 27.6551 45 26.8496 45 26.0098C45 25.1699 44.6664 24.3645 44.0725 23.7706C43.4786 23.1767 42.6732 22.8431 41.8333 22.8431C40.9935 22.8431 40.188 23.1767 39.5942 23.7706C39.0003 24.3645 38.6667 25.1699 38.6667 26.0098ZM22.8333 41.8431C22.8333 42.683 23.167 43.4884 23.7608 44.0823C24.3547 44.6761 25.1601 45.0098 26 45.0098C26.8399 45.0098 27.6453 44.6761 28.2392 44.0823C28.833 43.4884 29.1667 42.683 29.1667 41.8431C29.1667 41.0032 28.833 40.1978 28.2392 39.6039C27.6453 39.0101 26.8399 38.6764 26 38.6764C25.1601 38.6764 24.3547 39.0101 23.7608 39.6039C23.167 40.1978 22.8333 41.0032 22.8333 41.8431ZM7 26.0098C7 26.8496 7.33363 27.6551 7.9275 28.2489C8.52136 28.8428 9.32681 29.1764 10.1667 29.1764C11.0065 29.1764 11.812 28.8428 12.4058 28.2489C12.9997 27.6551 13.3333 26.8496 13.3333 26.0098C13.3333 25.1699 12.9997 24.3645 12.4058 23.7706C11.812 23.1767 11.0065 22.8431 10.1667 22.8431C9.32681 22.8431 8.52136 23.1767 7.9275 23.7706C7.33363 24.3645 7 25.1699 7 26.0098Z" stroke="#FFCF46" stroke-opacity="0.6" stroke-width="1.97917" stroke-linecap="round" stroke-linejoin="round"/>
<path d="M32.3333 32.3431C31.9562 30.9335 31.1381 29.6814 29.9987 28.7698C28.8592 27.8582 27.4581 27.3349 26 27.2764C24.5419 27.3349 23.1408 27.8582 22.0014 28.7698C20.8619 29.6814 20.0438 30.9335 19.6667 32.3431M22.2 22.2098C22.1893 22.7154 22.2797 23.2181 22.4659 23.6884C22.652 24.1586 22.9301 24.587 23.284 24.9484C23.6378 25.3098 24.0602 25.5969 24.5265 25.7929C24.9927 25.9889 25.4934 26.0899 25.9992 26.0899C26.5049 26.0899 27.0056 25.9889 27.4718 25.7929C27.9381 25.5969 28.3605 25.3098 28.7143 24.9484C29.0682 24.587 29.3463 24.1586 29.5325 23.6884C29.7186 23.2181 29.809 22.7154 29.7983 22.2098C29.7774 21.216 29.3679 20.2701 28.6577 19.5747C27.9475 18.8793 26.9931 18.4899 25.9992 18.4899C25.0052 18.4899 24.0508 18.8793 23.3406 19.5747C22.6304 20.2701 22.221 21.216 22.2 22.2098ZM22.8333 10.1764C22.8333 11.0163 23.167 11.8217 23.7608 12.4156C24.3547 13.0095 25.1601 13.3431 26 13.3431C26.8399 13.3431 27.6453 13.0095 28.2392 12.4156C28.833 11.8217 29.1667 11.0163 29.1667 10.1764C29.1667 9.33658 28.833 8.53113 28.2392 7.93726C27.6453 7.3434 26.8399 7.00977 26 7.00977C25.1601 7.00977 24.3547 7.3434 23.7608 7.93726C23.167 8.53113 22.8333 9.33658 22.8333 10.1764ZM38.6667 26.0098C38.6667 26.8496 39.0003 27.6551 39.5942 28.2489C40.188 28.8428 40.9935 29.1764 41.8333 29.1764C42.6732 29.1764 43.4786 28.8428 44.0725 28.2489C44.6664 27.6551 45 26.8496 45 26.0098C45 25.1699 44.6664 24.3645 44.0725 23.7706C43.4786 23.1767 42.6732 22.8431 41.8333 22.8431C40.9935 22.8431 40.188 23.1767 39.5942 23.7706C39.0003 24.3645 38.6667 25.1699 38.6667 26.0098ZM22.8333 41.8431C22.8333 42.683 23.167 43.4884 23.7608 44.0823C24.3547 44.6761 25.1601 45.0098 26 45.0098C26.8399 45.0098 27.6453 44.6761 28.2392 44.0823C28.833 43.4884 29.1667 42.683 29.1667 41.8431C29.1667 41.0032 28.833 40.1978 28.2392 39.6039C27.6453 39.0101 26.8399 38.6764 26 38.6764C25.1601 38.6764 24.3547 39.0101 23.7608 39.6039C23.167 40.1978 22.8333 41.0032 22.8333 41.8431ZM7 26.0098C7 26.8496 7.33363 27.6551 7.9275 28.2489C8.52136 28.8428 9.32681 29.1764 10.1667 29.1764C11.0065 29.1764 11.812 28.8428 12.4058 28.2489C12.9997 27.6551 13.3333 26.8496 13.3333 26.0098C13.3333 25.1699 12.9997 24.3645 12.4058 23.7706C11.812 23.1767 11.0065 22.8431 10.1667 22.8431C9.32681 22.8431 8.52136 23.1767 7.9275 23.7706C7.33363 24.3645 7 25.1699 7 26.0098Z" stroke="#FFCF46" stroke-opacity="0.6" stroke-width="1.97917" stroke-linecap="round" stroke-linejoin="round"/>
</svg>
