<svg width="48" height="48" viewBox="0 0 48 48" fill="none" xmlns="http://www.w3.org/2000/svg">
<g clip-path="url(#clip0_397_23133)">
<g clip-path="url(#clip1_397_23133)">
<path d="M16.7984 15.8973C16.7984 18.1829 15.8841 19.0973 13.5984 19.0973C11.3128 19.0973 10.3984 18.1829 10.3984 15.8973C10.3984 13.6116 11.3128 12.6973 13.5984 12.6973C15.8841 12.6973 16.7984 13.6116 16.7984 15.8973Z" stroke="#18191D" stroke-width="1.6"/>
<path d="M18.3969 27.8977H16.3969L15.5969 34.2977H11.5969L10.7969 27.8977H8.79688C8.79688 22.2977 9.59743 19.0977 13.5971 19.0977C14.5775 19.0977 15.3657 19.2899 15.9969 19.6626" stroke="#18191D" stroke-width="1.6" stroke-linecap="round" stroke-linejoin="round"/>
<path d="M31.2031 15.8973C31.2031 18.1829 32.1174 19.0973 34.4031 19.0973C36.6888 19.0973 37.6031 18.1829 37.6031 15.8973C37.6031 13.6116 36.6888 12.6973 34.4031 12.6973C32.1174 12.6973 31.2031 13.6116 31.2031 15.8973Z" stroke="#18191D" stroke-width="1.6"/>
<path d="M29.6016 27.8977H31.6016L32.4016 34.2977H36.4016L37.2016 27.8977H39.2016C39.2016 22.2977 38.401 19.0977 34.4013 19.0977C33.4209 19.0977 32.6328 19.2899 32.0016 19.6626" stroke="#18191D" stroke-width="1.6" stroke-linecap="round" stroke-linejoin="round"/>
<path d="M24.0031 16.6973L25.4865 19.5938L28.8031 19.8973L26.4031 22.3133L27.2031 25.4973L24.0031 23.9942L20.8031 25.4973L21.6031 22.3133L19.2031 19.8973L22.5198 19.5938L24.0031 16.6973Z" stroke="#18191D" stroke-width="1.6" stroke-linejoin="round"/>
</g>
</g>
<defs>
<clipPath id="clip0_397_23133">
<rect width="48" height="48" rx="8" fill="white"/>
</clipPath>
<clipPath id="clip1_397_23133">
<rect width="48" height="48" fill="white"/>
</clipPath>
</defs>
</svg>
