<svg width="52" height="52" viewBox="0 0 52 52" fill="none" xmlns="http://www.w3.org/2000/svg">
<path d="M11.5503 34.1558C11.1671 34.1558 10.7996 34.308 10.5287 34.579C10.2578 34.8499 10.1055 35.2174 10.1055 35.6005V37.7676C10.1055 37.8634 10.1436 37.9553 10.2113 38.023C10.2791 38.0907 10.3709 38.1288 10.4667 38.1288H15.5232C15.619 38.1288 15.7109 38.0907 15.7786 38.023C15.8463 37.9553 15.8844 37.8634 15.8844 37.7676V35.6005C15.8844 35.2174 15.7322 34.8499 15.4612 34.579C15.1903 34.308 14.8228 34.1558 14.4397 34.1558H11.5503ZM20.2185 29.8217C19.8354 29.8217 19.4679 29.9739 19.197 30.2448C18.926 30.5158 18.7738 30.8832 18.7738 31.2664V37.7676C18.7738 37.8634 18.8119 37.9553 18.8796 38.023C18.9473 38.0907 19.0392 38.1288 19.135 38.1288H24.1915C24.2873 38.1288 24.3792 38.0907 24.4469 38.023C24.5146 37.9553 24.5527 37.8634 24.5527 37.7676V31.2664C24.5527 30.8832 24.4005 30.5158 24.1295 30.2448C23.8586 29.9739 23.4911 29.8217 23.108 29.8217H20.2185ZM28.8868 24.7652C28.5037 24.7652 28.1362 24.9174 27.8653 25.1883C27.5943 25.4593 27.4421 25.8267 27.4421 26.2099V37.7676C27.4421 37.8634 27.4802 37.9553 27.5479 38.023C27.6156 38.0907 27.7075 38.1288 27.8033 38.1288H32.8598C32.9556 38.1288 33.0474 38.0907 33.1152 38.023C33.1829 37.9553 33.221 37.8634 33.221 37.7676V26.2099C33.221 25.8267 33.0688 25.4593 32.7978 25.1883C32.5269 24.9174 32.1594 24.7652 31.7763 24.7652H28.8868ZM36.4716 38.1288H41.5281C41.6239 38.1288 41.7157 38.0907 41.7835 38.023C41.8512 37.9553 41.8893 37.8634 41.8893 37.7676V20.431C41.8893 20.0479 41.737 19.6804 41.4661 19.4095C41.1952 19.1385 40.8277 18.9863 40.4445 18.9863H37.5551C37.1719 18.9863 36.8045 19.1385 36.5335 19.4095C36.2626 19.6804 36.1104 20.0479 36.1104 20.431V37.7676C36.1104 37.8634 36.1484 37.9553 36.2162 38.023C36.2839 38.0907 36.3758 38.1288 36.4716 38.1288ZM10.1055 43.0119H41.8893C42.2325 43.0112 42.5643 42.8882 42.8252 42.665C43.086 42.4418 43.2589 42.1331 43.3128 41.794C43.3667 41.455 43.2981 41.1079 43.1193 40.8148C42.9405 40.5217 42.6632 40.3019 42.3371 40.1947C42.1926 40.1472 42.0414 40.1228 41.8893 40.1225H10.1055C9.95338 40.1228 9.80223 40.1472 9.65768 40.1947C9.33155 40.3019 9.05425 40.5217 8.87546 40.8148C8.69668 41.1079 8.62809 41.455 8.68198 41.794C8.73588 42.1331 8.90874 42.4418 9.1696 42.665C9.43045 42.8882 9.76225 43.0112 10.1055 43.0119Z" fill="#FFCF46" fill-opacity="0.6"/>
<path d="M33.8787 15.0787L34.3265 15.7433C34.4246 15.8907 34.5579 16.0115 34.7142 16.0947C34.8706 16.1779 35.0451 16.221 35.2222 16.22C35.4062 16.2134 35.5853 16.1593 35.7422 16.0632C35.8991 15.967 36.0285 15.8319 36.118 15.6711L39.0074 10.6146C39.1136 10.4432 39.1698 10.2455 39.1698 10.0439C39.1698 9.84226 39.1136 9.64463 39.0074 9.47323C38.9006 9.30327 38.747 9.16783 38.565 9.08324C38.383 8.99865 38.1804 8.96851 37.9816 8.99647L32.2028 9.71883C32.0197 9.74198 31.8456 9.81152 31.6969 9.92084C31.5482 10.0302 31.4299 10.1757 31.3532 10.3435C31.2765 10.5114 31.244 10.696 31.2586 10.88C31.2733 11.064 31.3347 11.2411 31.4371 11.3947L31.8705 12.0593C31.8972 12.0978 31.9158 12.1414 31.9251 12.1873C31.9345 12.2332 31.9344 12.2806 31.925 12.3265C31.9155 12.3724 31.8969 12.4159 31.8701 12.4544C31.8434 12.4929 31.8091 12.5256 31.7694 12.5505L11.3122 26.2175C11.1534 26.3224 11.0169 26.4577 10.9106 26.6156C10.8042 26.7735 10.7301 26.9508 10.6925 27.1375C10.6549 27.3241 10.6546 27.5163 10.6915 27.703C10.7284 27.8898 10.8019 28.0674 10.9077 28.2256C11.0402 28.4217 11.2189 28.5822 11.428 28.693C11.637 28.8039 11.8702 28.8616 12.1068 28.8613C12.3908 28.8645 12.6687 28.7786 12.9014 28.6157L33.373 14.9776C33.4127 14.9506 33.4574 14.9317 33.5044 14.9222C33.5515 14.9127 33.6 14.9126 33.6471 14.922C33.6941 14.9314 33.7389 14.9501 33.7786 14.977C33.8184 15.0039 33.8524 15.0385 33.8787 15.0787Z" fill="#FFCF46" fill-opacity="0.6"/>
</svg>
