<svg width="52" height="52" viewBox="0 0 52 52" fill="none" xmlns="http://www.w3.org/2000/svg">
<path d="M11.5503 34.1578C11.1671 34.1578 10.7996 34.31 10.5287 34.5809C10.2578 34.8519 10.1055 35.2193 10.1055 35.6025V37.7696C10.1055 37.8654 10.1436 37.9572 10.2113 38.025C10.2791 38.0927 10.3709 38.1307 10.4667 38.1307H15.5232C15.619 38.1307 15.7109 38.0927 15.7786 38.025C15.8463 37.9572 15.8844 37.8654 15.8844 37.7696V35.6025C15.8844 35.2193 15.7322 34.8519 15.4612 34.5809C15.1903 34.31 14.8228 34.1578 14.4397 34.1578H11.5503ZM20.2185 29.8236C19.8354 29.8236 19.4679 29.9758 19.197 30.2468C18.926 30.5177 18.7738 30.8852 18.7738 31.2684V37.7696C18.7738 37.8654 18.8119 37.9572 18.8796 38.025C18.9473 38.0927 19.0392 38.1307 19.135 38.1307H24.1915C24.2873 38.1307 24.3792 38.0927 24.4469 38.025C24.5146 37.9572 24.5527 37.8654 24.5527 37.7696V31.2684C24.5527 30.8852 24.4005 30.5177 24.1295 30.2468C23.8586 29.9758 23.4911 29.8236 23.108 29.8236H20.2185ZM28.8868 24.7671C28.5037 24.7671 28.1362 24.9194 27.8653 25.1903C27.5943 25.4612 27.4421 25.8287 27.4421 26.2119V37.7696C27.4421 37.8654 27.4802 37.9572 27.5479 38.025C27.6156 38.0927 27.7075 38.1307 27.8033 38.1307H32.8598C32.9556 38.1307 33.0474 38.0927 33.1152 38.025C33.1829 37.9572 33.221 37.8654 33.221 37.7696V26.2119C33.221 25.8287 33.0688 25.4612 32.7978 25.1903C32.5269 24.9194 32.1594 24.7671 31.7763 24.7671H28.8868ZM36.4716 38.1307H41.5281C41.6239 38.1307 41.7157 38.0927 41.7835 38.025C41.8512 37.9572 41.8893 37.8654 41.8893 37.7696V20.433C41.8893 20.0498 41.737 19.6824 41.4661 19.4114C41.1952 19.1405 40.8277 18.9883 40.4445 18.9883H37.5551C37.1719 18.9883 36.8045 19.1405 36.5335 19.4114C36.2626 19.6824 36.1104 20.0498 36.1104 20.433V37.7696C36.1104 37.8654 36.1484 37.9572 36.2162 38.025C36.2839 38.0927 36.3758 38.1307 36.4716 38.1307ZM10.1055 43.0139H41.8893C42.2325 43.0131 42.5643 42.8901 42.8252 42.667C43.086 42.4438 43.2589 42.135 43.3128 41.796C43.3667 41.457 43.2981 41.1098 43.1193 40.8168C42.9405 40.5237 42.6632 40.3039 42.3371 40.1967C42.1926 40.1492 42.0414 40.1248 41.8893 40.1244H10.1055C9.95338 40.1248 9.80223 40.1492 9.65768 40.1967C9.33155 40.3039 9.05425 40.5237 8.87546 40.8168C8.69668 41.1098 8.62809 41.457 8.68198 41.796C8.73588 42.135 8.90874 42.4438 9.1696 42.667C9.43045 42.8901 9.76225 43.0131 10.1055 43.0139Z" fill="#3B82F6" fill-opacity="0.6"/>
<path d="M33.8787 15.0807L34.3265 15.7452C34.4246 15.8927 34.5579 16.0134 34.7142 16.0967C34.8706 16.1799 35.0451 16.2229 35.2222 16.222C35.4062 16.2153 35.5853 16.1613 35.7422 16.0651C35.8991 15.9689 36.0285 15.8339 36.118 15.673L39.0074 10.6165C39.1136 10.4451 39.1698 10.2475 39.1698 10.0458C39.1698 9.84421 39.1136 9.64658 39.0074 9.47518C38.9006 9.30523 38.747 9.16979 38.565 9.08519C38.383 9.0006 38.1804 8.97046 37.9816 8.99843L32.2028 9.72078C32.0197 9.74394 31.8456 9.81347 31.6969 9.9228C31.5482 10.0321 31.4299 10.1776 31.3532 10.3455C31.2765 10.5133 31.244 10.698 31.2586 10.882C31.2733 11.0659 31.3347 11.2431 31.4371 11.3967L31.8705 12.0612C31.8972 12.0998 31.9158 12.1433 31.9251 12.1893C31.9345 12.2352 31.9344 12.2825 31.925 12.3285C31.9155 12.3744 31.8969 12.4179 31.8701 12.4564C31.8434 12.4949 31.8091 12.5275 31.7694 12.5524L11.3122 26.2194C11.1534 26.3244 11.0169 26.4597 10.9106 26.6176C10.8042 26.7754 10.7301 26.9528 10.6925 27.1394C10.6549 27.326 10.6546 27.5182 10.6915 27.705C10.7284 27.8917 10.8019 28.0693 10.9077 28.2276C11.0402 28.4236 11.2189 28.5841 11.428 28.695C11.637 28.8058 11.8702 28.8636 12.1068 28.8632C12.3908 28.8665 12.6687 28.7806 12.9014 28.6176L33.373 14.9795C33.4127 14.9525 33.4574 14.9337 33.5044 14.9242C33.5515 14.9146 33.6 14.9145 33.6471 14.924C33.6941 14.9334 33.7389 14.9521 33.7786 14.979C33.8184 15.0059 33.8524 15.0405 33.8787 15.0807Z" fill="#3B82F6" fill-opacity="0.6"/>
</svg>
