<svg width="52" height="52" viewBox="0 0 52 52" fill="none" xmlns="http://www.w3.org/2000/svg">
<path d="M35.4978 45C38.0173 45 40.4337 43.9991 42.2153 42.2175C43.9969 40.4359 44.9978 38.0196 44.9978 35.5C44.9978 32.9804 43.9969 30.5641 42.2153 28.7825C40.4337 27.0009 38.0173 26 35.4978 26C32.9782 26 30.5619 27.0009 28.7803 28.7825C26.9987 30.5641 25.9978 32.9804 25.9978 35.5C25.9978 38.0196 26.9987 40.4359 28.7803 42.2175C30.5619 43.9991 32.9782 45 35.4978 45ZM36.4586 29.1106L40.5301 33.182C40.7849 33.4368 40.9281 33.7825 40.9281 34.1429C40.9281 34.5032 40.7849 34.8489 40.5301 35.1037C40.2752 35.3585 39.9296 35.5017 39.5692 35.5017C39.2088 35.5017 38.8632 35.3585 38.6083 35.1037L36.8549 33.3476V40.9286C36.8549 41.2885 36.7119 41.6337 36.4574 41.8882C36.2029 42.1427 35.8577 42.2857 35.4978 42.2857C35.1378 42.2857 34.7926 42.1427 34.5381 41.8882C34.2836 41.6337 34.1406 41.2885 34.1406 40.9286V33.3476L32.3872 35.1037C32.1324 35.3585 31.7867 35.5017 31.4263 35.5017C31.066 35.5017 30.7203 35.3585 30.4655 35.1037C30.2106 34.8489 30.0675 34.5032 30.0675 34.1429C30.0675 33.7825 30.2106 33.4368 30.4655 33.182L34.5369 29.1106C34.663 28.9842 34.8127 28.8839 34.9776 28.8155C35.1425 28.7471 35.3193 28.7119 35.4978 28.7119C35.6763 28.7119 35.853 28.7471 36.0179 28.8155C36.1828 28.8839 36.3326 28.9842 36.4586 29.1106ZM31.4263 15.1429C31.4263 17.3025 30.5684 19.3736 29.0414 20.9007C27.5143 22.4278 25.4431 23.2857 23.2835 23.2857C21.1239 23.2857 19.0527 22.4278 17.5256 20.9007C15.9985 19.3736 15.1406 17.3025 15.1406 15.1429C15.1406 12.9832 15.9985 10.9121 17.5256 9.38499C19.0527 7.85791 21.1239 7 23.2835 7C25.4431 7 27.5143 7.85791 29.0414 9.38499C30.5684 10.9121 31.4263 12.9832 31.4263 15.1429ZM23.2835 20.5714C24.7232 20.5714 26.104 19.9995 27.1221 18.9814C28.1401 17.9634 28.7121 16.5826 28.7121 15.1429C28.7121 13.7031 28.1401 12.3223 27.1221 11.3043C26.104 10.2862 24.7232 9.71429 23.2835 9.71429C21.8437 9.71429 20.463 10.2862 19.4449 11.3043C18.4268 12.3223 17.8549 13.7031 17.8549 15.1429C17.8549 16.5826 18.4268 17.9634 19.4449 18.9814C20.463 19.9995 21.8437 20.5714 23.2835 20.5714Z" fill="#BB97F1" fill-opacity="0.6"/>
<path d="M23.9806 39.5714C23.6698 38.6898 23.4612 37.7755 23.359 36.8463H9.71429C9.717 36.1786 10.1323 34.17 11.9726 32.3297C13.7423 30.56 17.0727 28.7143 23.2857 28.7143C23.9914 28.7143 24.6609 28.7369 25.2943 28.7821C25.9077 27.8566 26.6406 27.0179 27.4766 26.2904C26.2099 26.1004 24.813 26.0036 23.2857 26C9.71429 26 7 34.1429 7 36.8571C7 39.5714 9.71429 39.5714 9.71429 39.5714H23.9806Z" fill="#BB97F1" fill-opacity="0.6"/>
</svg>
