<svg width="24" height="24" viewBox="0 0 24 24" fill="none" xmlns="http://www.w3.org/2000/svg">
<path fill-rule="evenodd" clip-rule="evenodd" d="M4.86921 7.69226C5.90101 7.69226 6.73841 6.86519 6.73841 5.84613C6.73841 4.82707 5.90101 4 4.86921 4C3.8374 4 3 4.82707 3 5.84613C3 6.86519 3.8374 7.69226 4.86921 7.69226ZM3 20V8.92317H6.73841V20H3ZM9.23134 8.92317H12.6794V10.6684H12.7293C13.209 9.81794 14.3828 8.92317 16.1337 8.92317C19.7737 8.92317 20.4466 11.1607 20.4466 14.0714V20H16.8515V14.7446C16.8515 13.4917 16.8253 11.8782 14.9822 11.8782C13.1106 11.8782 12.824 13.2431 12.824 14.6536V20H9.23134V8.92317Z" fill="black"/>
</svg>
