<svg width="52" height="52" viewBox="0 0 52 52" fill="none" xmlns="http://www.w3.org/2000/svg">
<path d="M34.6686 26.0004C36.5534 26 38.3868 25.3853 39.8908 24.2494C41.3948 23.1134 42.4876 21.5181 43.0034 19.7053C43.5193 17.8924 43.4301 15.9608 42.7494 14.2032C42.0688 12.4456 40.8337 10.9578 39.2314 9.9652C37.6292 8.97263 35.747 8.52943 33.8702 8.70275C31.9933 8.87607 30.2242 9.65647 28.8308 10.9257C27.4374 12.1949 26.4957 13.8838 26.1484 15.7363C25.8011 17.5888 26.0672 19.5041 26.9063 21.1918C27.0645 21.4984 27.1058 21.852 27.0225 22.1868L26.5059 24.1161C26.4548 24.3071 26.4548 24.5082 26.506 24.6993C26.5572 24.8903 26.6577 25.0644 26.7976 25.2043C26.9374 25.3441 27.1116 25.4446 27.3026 25.4958C27.4936 25.547 27.6947 25.5471 27.8857 25.4959L29.815 24.9794C30.1498 24.8961 30.5034 24.9373 30.81 25.0955C32.0091 25.6911 33.3298 26.0008 34.6686 26.0004Z" stroke="#FFCF46" stroke-opacity="0.6" stroke-width="3"/>
<path d="M8.67561 22.4176C8.54907 25.725 9.38632 31.343 15.02 36.9784C16.2459 38.2178 17.6017 39.3214 19.0641 40.2702M11.3295 17.2242C13.7442 14.8096 17.5959 15.1337 19.1299 17.8829L20.2549 19.8972C21.269 21.7173 20.8616 24.1025 19.2634 25.7024C19.2634 25.7024 17.322 27.6422 20.8408 31.1593C24.3562 34.6747 26.296 32.7367 26.296 32.7367C27.8959 31.1368 30.2829 30.7294 32.1012 31.7435L34.1172 32.8702C36.8647 34.4025 37.1889 38.2542 34.7742 40.6706C33.3233 42.1198 31.5448 43.25 29.5808 43.3228C27.7848 43.3847 25.9903 43.1612 24.2644 42.6606" stroke="#FFCF46" stroke-opacity="0.6" stroke-width="3" stroke-linecap="round"/>
</svg>
