<svg width="52" height="52" viewBox="0 0 52 52" fill="none" xmlns="http://www.w3.org/2000/svg">
<path d="M20.1748 41.7627C20.253 41.7587 20.3312 41.7703 20.4053 41.7969H20.4062C24.028 43.093 27.9797 43.0996 31.6055 41.8193L31.6094 41.8291C31.6813 41.8034 31.7572 41.7919 31.833 41.7959C31.9089 41.7999 31.9836 41.8193 32.0527 41.8525C32.1219 41.8858 32.1842 41.9329 32.2363 41.9912C32.2883 42.0494 32.3291 42.1175 32.3555 42.1924C32.3819 42.2674 32.3938 42.3479 32.3896 42.4277C32.3855 42.5075 32.3659 42.5856 32.332 42.6572C32.2982 42.7288 32.2509 42.7924 32.1934 42.8447C32.1646 42.8709 32.1335 42.8943 32.1006 42.9141L31.9971 42.9629C28.1169 44.3459 23.8841 44.3457 20.0039 42.9629H20.0049C19.8555 42.9093 19.7304 42.7973 19.6602 42.6484C19.5898 42.499 19.5806 42.3262 19.6357 42.1699C19.6909 42.014 19.8044 41.8892 19.9482 41.8203C20.0195 41.7862 20.0966 41.7667 20.1748 41.7627ZM8.58301 25.3965C8.73504 25.3965 8.88313 25.4574 8.99316 25.5684C9.10345 25.6795 9.16696 25.8324 9.16699 25.9932V26C9.19183 29.8829 10.5378 33.6404 12.9814 36.6445L13.0449 36.7422C13.0988 36.8454 13.1222 36.9639 13.1104 37.083C13.0946 37.2418 13.0173 37.3862 12.8984 37.4854V37.4863C12.7948 37.5729 12.6653 37.619 12.5332 37.6201H12.5303C12.4449 37.6211 12.3594 37.6037 12.2812 37.5674C12.2033 37.5311 12.1341 37.4768 12.0781 37.4092H12.0771C9.46083 34.1889 8.02109 30.1583 8 25.9932C8.00004 25.8324 8.06355 25.6795 8.17383 25.5684C8.28376 25.4576 8.43117 25.3966 8.58301 25.3965ZM26.792 16.457C32.0916 16.4572 36.1943 20.0883 36.1943 24.0938C36.1943 28.1009 32.2001 31.6504 26.9023 31.6504H26.8955C25.9221 31.6572 24.9521 31.5346 24.0098 31.2881C23.7179 31.197 23.4026 31.2076 23.1162 31.3203L23.0879 31.332L23.0596 31.3447L18.3574 33.5371L19.8145 30.4863C19.9436 30.2696 20.0117 30.0214 20.0117 29.7686C20.0117 29.4797 19.9221 29.1968 19.7549 28.96L19.6953 28.875L19.6191 28.8047L19.3779 28.5684C18.8296 28.0038 18.3845 27.344 18.0654 26.6191C17.7021 25.7936 17.5096 24.9017 17.5 23.998C17.5 20.0079 21.4928 16.457 26.792 16.457ZM19.8545 8.74902C19.997 8.69828 20.1536 8.7056 20.291 8.77051C20.4299 8.83616 20.5398 8.95634 20.5938 9.10645C20.6475 9.25677 20.6393 9.42311 20.5723 9.56738C20.5052 9.7113 20.3858 9.82058 20.2422 9.87305L20.2373 9.87402C16.6121 11.2186 13.5507 13.7675 11.5566 17.0986L11.5527 17.1055C11.5002 17.1948 11.4264 17.2681 11.3389 17.3184C11.2538 17.3672 11.1583 17.3921 11.0615 17.3936C10.9612 17.3903 10.8628 17.3616 10.7764 17.3076L10.7666 17.3018L10.6748 17.2324C10.59 17.1543 10.5287 17.0511 10.5 16.9346C10.4618 16.7793 10.4855 16.6145 10.5664 16.4785C12.6306 13.0186 15.7718 10.3513 19.4922 8.88672L19.8545 8.74902ZM29.5117 8.00977C33.5623 8.83827 37.2126 11.0363 39.8584 14.2422H39.8594C39.909 14.3023 39.9464 14.3726 39.9697 14.4482C39.993 14.5238 40.0013 14.6035 39.9941 14.6826C39.9869 14.7617 39.9641 14.8385 39.9277 14.9082C39.8913 14.9778 39.8423 15.0394 39.7832 15.0889C39.6787 15.1762 39.5483 15.2224 39.415 15.2227C39.3311 15.2217 39.2482 15.2029 39.1719 15.166C39.0947 15.1286 39.0256 15.0741 38.9707 15.0059L38.959 14.9922L38.7246 14.7168C36.2694 11.8995 32.958 9.97171 29.2998 9.24023L29.291 9.23926L29.1768 9.20508C29.0666 9.16 28.9697 9.08222 28.9004 8.97949C28.8078 8.84213 28.7726 8.67196 28.8037 8.50684C28.8348 8.34175 28.9294 8.19843 29.0635 8.10645C29.1957 8.01573 29.3564 7.9814 29.5117 8.00977ZM42.833 25.833C42.8322 25.0009 42.7702 24.1697 42.6484 23.3467C42.6267 23.1883 42.6688 23.0283 42.7627 22.9023C42.8568 22.7761 42.9958 22.6944 43.1465 22.6729H43.1475C43.2971 22.6513 43.45 22.69 43.5732 22.7822C43.6969 22.8749 43.7819 23.015 43.8057 23.1729C43.938 24.0524 44.0027 24.9414 44 25.8311V25.834C44.0003 30.0011 42.5796 34.0407 39.9775 37.2754C39.9221 37.3443 39.8525 37.3991 39.7744 37.4365C39.6963 37.4739 39.6111 37.4934 39.5254 37.4932H39.5176C39.419 37.4936 39.3217 37.4681 39.2354 37.4199L39.1533 37.3643C39.0933 37.3156 39.0434 37.2548 39.0059 37.1855C38.9684 37.1163 38.9439 37.0401 38.9355 36.9609C38.9272 36.8817 38.9347 36.8017 38.957 36.7256C38.9794 36.6495 39.0155 36.5784 39.0645 36.5176L39.0654 36.5186C41.5008 33.4976 42.8302 29.7246 42.833 25.834V25.833Z" stroke="#BB97F1" stroke-opacity="0.6" stroke-width="2"/>
</svg>
