<svg width="24" height="24" viewBox="0 0 24 24" fill="none" xmlns="http://www.w3.org/2000/svg">
<path d="M20.8031 6.6551C20.1565 6.93832 19.4593 7.12676 18.7312 7.21076C19.4769 6.77356 20.0476 6.08007 20.3193 5.25521C19.622 5.65903 18.8478 5.95516 18.0274 6.11345C17.3676 5.42643 16.4295 5 15.3914 5C13.3976 5 11.7832 6.58188 11.7832 8.53311C11.7832 8.80879 11.814 9.078 11.8755 9.33751C8.87551 9.18891 6.21527 7.78255 4.43482 5.64287C4.1258 6.16406 3.94654 6.77356 3.94654 7.41966C3.94654 8.6451 4.58218 9.72841 5.55104 10.3605C4.95939 10.3433 4.40292 10.1818 3.91465 9.92008V9.96424C3.91465 11.6775 5.15844 13.1076 6.81133 13.4306C6.5089 13.5114 6.18888 13.5555 5.85896 13.5555C5.62582 13.5555 5.40148 13.5318 5.17823 13.4919C5.63901 14.8951 6.97188 15.9181 8.54999 15.9482C7.3128 16.897 5.75889 17.4623 4.06531 17.4623C3.77278 17.4623 3.48795 17.4451 3.20312 17.4117C4.80432 18.4174 6.70135 19 8.73914 19C15.3782 19 19.0117 13.6126 19.0117 8.94123C19.0117 8.78617 19.0084 8.63541 19.0018 8.48358C19.7067 7.98931 20.3182 7.36582 20.802 6.65618L20.8031 6.6551Z" fill="black"/>
</svg>
