<svg width="24" height="24" viewBox="0 0 24 24" fill="none" xmlns="http://www.w3.org/2000/svg">
<path d="M20.7992 6.6551C20.1526 6.93832 19.4554 7.12676 18.7273 7.21076C19.473 6.77356 20.0437 6.08007 20.3154 5.25521C19.6181 5.65903 18.8439 5.95516 18.0235 6.11345C17.3637 5.42643 16.4256 5 15.3875 5C13.3937 5 11.7793 6.58188 11.7793 8.53311C11.7793 8.80879 11.8101 9.078 11.8716 9.33751C8.8716 9.18891 6.21136 7.78255 4.43091 5.64287C4.12189 6.16406 3.94263 6.77356 3.94263 7.41966C3.94263 8.6451 4.57827 9.72841 5.54713 10.3605C4.95548 10.3433 4.39902 10.1818 3.91074 9.92008V9.96424C3.91074 11.6775 5.15453 13.1076 6.80742 13.4306C6.50499 13.5114 6.18497 13.5555 5.85505 13.5555C5.62191 13.5555 5.39757 13.5318 5.17432 13.4919C5.63511 14.8951 6.96798 15.9181 8.54608 15.9482C7.30889 16.897 5.75498 17.4623 4.0614 17.4623C3.76888 17.4623 3.48405 17.4451 3.19922 17.4117C4.80042 18.4174 6.69744 19 8.73523 19C15.3743 19 19.0078 13.6126 19.0078 8.94123C19.0078 8.78617 19.0045 8.63541 18.9979 8.48358C19.7028 7.98931 20.3143 7.36582 20.7981 6.65618L20.7992 6.6551Z" fill="black"/>
</svg>
