<svg width="40" height="40" viewBox="0 0 40 40" fill="none" xmlns="http://www.w3.org/2000/svg">
<path d="M34.6667 0H5.33333C2.38781 0 0 2.38781 0 5.33333V34.6667C0 37.6122 2.38781 40 5.33333 40H34.6667C37.6122 40 40 37.6122 40 34.6667V5.33333C40 2.38781 37.6122 0 34.6667 0Z" fill="#BB97F1" fill-opacity="0.6"/>
<path d="M29.0026 24.9993C29.0026 26.666 28.3359 27.3327 26.6693 27.3327C25.0026 27.3327 24.3359 26.666 24.3359 24.9993C24.3359 23.3327 25.0026 22.666 26.6693 22.666C28.3359 22.666 29.0026 23.3327 29.0026 24.9993Z" stroke="#18191D" stroke-width="1.33333"/>
<path d="M29.3333 29.334C29 27.834 28 27.334 26.6667 27.334C25.3333 27.334 24.3333 27.834 24 29.334" stroke="#18191D" stroke-width="1.33333" stroke-linecap="round" stroke-linejoin="round"/>
<path d="M15.6667 24.9993C15.6667 26.666 15 27.3327 13.3333 27.3327C11.6667 27.3327 11 26.666 11 24.9993C11 23.3327 11.6667 22.666 13.3333 22.666C15 22.666 15.6667 23.3327 15.6667 24.9993Z" stroke="#18191D" stroke-width="1.33333"/>
<path d="M15.9974 29.334C15.6641 27.834 14.6641 27.334 13.3307 27.334C11.9974 27.334 10.9974 27.834 10.6641 29.334" stroke="#18191D" stroke-width="1.33333" stroke-linecap="round" stroke-linejoin="round"/>
<path d="M17.9974 27.2812C18.6281 27.3164 19.2945 27.3337 19.9974 27.3337C20.7003 27.3337 21.3667 27.3164 21.9974 27.2812M31.0309 22.0004C31.2336 21.2104 31.3307 20.3234 31.3307 19.3337C31.3307 15.5739 29.9289 13.2984 26.6641 12.1816M8.96393 22.0004C8.7612 21.2104 8.66406 20.3234 8.66406 19.3337C8.66406 15.5739 10.0659 13.2984 13.3307 12.1816" stroke="#18191D" stroke-width="1.33333" stroke-linecap="round"/>
<path d="M21.9958 12.666V13.9993C21.9958 15.1039 21.0908 15.9993 19.9862 15.9993C18.8816 15.9993 17.9766 15.1039 17.9766 13.9993V12.666" stroke="#18191D" stroke-width="1.33333" stroke-linecap="round" stroke-linejoin="round"/>
<path d="M24 11.334L20 9.33398L16 11.334L20 13.334L24 11.334Z" stroke="#18191D" stroke-width="1.33333" stroke-linecap="round" stroke-linejoin="round"/>
<path d="M16 11.334V13.334" stroke="#18191D" stroke-width="1.33333" stroke-linecap="round" stroke-linejoin="round"/>
</svg>
