<svg width="40" height="40" viewBox="0 0 40 40" fill="none" xmlns="http://www.w3.org/2000/svg">
<g clip-path="url(#clip0_14593_8643)">
<rect width="40" height="40" rx="5.92593" fill="#BB97F1" fill-opacity="0.6"/>
<path d="M9.65892 24.2589C10.0262 23.6828 10.6621 23.334 11.3454 23.334H28.6517C29.3349 23.334 29.9709 23.6828 30.3381 24.2589L33.0183 28.4631C33.4427 29.1288 32.9645 30.0007 32.1751 30.0007H7.82192C7.03245 30.0007 6.55433 29.1288 6.97872 28.4631L9.65892 24.2589Z" stroke="#18191D" stroke-width="1.33333" stroke-linejoin="round"/>
<path d="M12 23.3327H28C29.1046 23.3327 30 22.4373 30 21.3327V10.666C30 9.56148 29.1045 8.66602 28 8.66602H12C10.8954 8.66602 10 9.56148 10 10.666V21.3327C10 22.4373 10.8954 23.3327 12 23.3327Z" stroke="#18191D" stroke-width="1.33333" stroke-linecap="round" stroke-linejoin="round"/>
<path d="M20.1667 13.9993L19.6649 14.4383C19.7915 14.583 19.9744 14.666 20.1667 14.666V13.9993ZM17.3333 14.3327C17.3333 14.1486 17.4826 13.9993 17.6667 13.9993V12.666C16.7462 12.666 16 13.4122 16 14.3327H17.3333ZM17.3333 14.9993V14.3327H16V14.9993H17.3333ZM17.3333 15.3327V14.9993H16V15.3327H17.3333ZM17.3333 17.666V15.3327H16V17.666H17.3333ZM17.6667 17.9993C17.4826 17.9993 17.3333 17.8501 17.3333 17.666H16C16 18.5865 16.7462 19.3327 17.6667 19.3327V17.9993ZM22.3333 17.9993H17.6667V19.3327H22.3333V17.9993ZM22.6667 17.666C22.6667 17.8501 22.5174 17.9993 22.3333 17.9993V19.3327C23.2538 19.3327 24 18.5865 24 17.666H22.6667ZM22.6667 14.9993V17.666H24V14.9993H22.6667ZM22.3333 14.666C22.5174 14.666 22.6667 14.8153 22.6667 14.9993H24C24 14.0789 23.2538 13.3327 22.3333 13.3327V14.666ZM20.1667 14.666H22.3333V13.3327H20.1667V14.666ZM19.3804 14.1131L19.6649 14.4383L20.6684 13.5603L20.3839 13.2351L19.3804 14.1131ZM19.1295 13.9993C19.2257 13.9993 19.3171 14.0408 19.3804 14.1131L20.3839 13.2351C20.0674 12.8735 19.6102 12.666 19.1295 12.666V13.9993ZM17.6667 13.9993H19.1295V12.666H17.6667V13.9993Z" fill="#18191D"/>
<path d="M15.5781 27.334H24.4203" stroke="#18191D" stroke-width="1.33333" stroke-linecap="round"/>
</g>
<defs>
<clipPath id="clip0_14593_8643">
<rect width="40" height="40" rx="5.92593" fill="white"/>
</clipPath>
</defs>
</svg>
