<svg width="52" height="52" viewBox="0 0 52 52" fill="none" xmlns="http://www.w3.org/2000/svg">
<path d="M15.2295 29.4277H16.459C17.9946 30.9038 19.8662 31.9806 21.9111 32.5674C22.7575 33.6127 24.0502 34.2852 25.5 34.2852V34.2842C26.2407 34.2845 26.9704 34.1073 27.6279 33.7656C28.2856 33.4238 28.8523 32.9288 29.2793 32.3223C29.7062 31.7158 29.9815 31.0153 30.083 30.2803C30.1222 29.9969 30.1342 29.7116 30.1211 29.4277H35.7705C36.6253 29.4277 37.4468 29.769 38.0527 30.3779C38.6589 30.9871 39 31.8151 39 32.6787V33.2852C39 35.7314 37.4502 37.9159 35.0088 39.4775C32.5658 41.0405 29.2026 42 25.5 42C22.0288 42 18.857 41.1571 16.46 39.7637L15.9912 39.4775C13.5498 37.9159 12 35.7314 12 33.2852V32.6787C12 31.8151 12.3411 30.9871 12.9473 30.3779C13.5532 29.769 14.3747 29.4277 15.2295 29.4277ZM25.9355 10.0098C27.6169 10.0844 29.2517 10.5898 30.6846 11.4785C32.1174 12.3673 33.301 13.6101 34.1221 15.0889C34.9432 16.5677 35.3748 18.2336 35.375 19.9277C35.375 19.9861 35.352 20.0413 35.3125 20.0811C35.2731 20.1206 35.2205 20.1425 35.167 20.1426C35.1134 20.1426 35.0609 20.1206 35.0215 20.0811C34.9819 20.0412 34.958 19.9862 34.958 19.9277C34.958 17.4098 33.9626 14.9939 32.1895 13.2119C30.4161 11.4299 28.01 10.4277 25.5 10.4277C22.99 10.4277 20.5839 11.4299 18.8105 13.2119C17.0374 14.9939 16.042 17.4098 16.042 19.9277L16.0498 20.3281C16.1331 22.3245 16.8418 24.2478 18.0801 25.8213C19.4011 27.4999 21.2479 28.6818 23.3223 29.1748L23.9678 29.3291L24.3604 28.793C24.5455 28.5403 24.8075 28.3566 25.1055 28.2695C25.4035 28.1826 25.7223 28.1964 26.0117 28.3096C26.3013 28.4228 26.5466 28.6298 26.709 28.8984C26.8714 29.1671 26.9419 29.4825 26.9082 29.7959C26.8745 30.1093 26.7387 30.4018 26.5234 30.6289C26.3082 30.8559 26.0253 31.0053 25.7188 31.0537C25.4124 31.1021 25.0984 31.0476 24.8252 30.8984C24.5519 30.7492 24.3336 30.513 24.2061 30.2256L23.998 29.7568L23.4961 29.6523L22.9707 29.5273C21.7528 29.2027 20.6063 28.6458 19.5938 27.8857C18.2443 26.8731 17.1744 25.5296 16.4863 23.9834C15.7984 22.4374 15.5144 20.7401 15.6631 19.0527C15.8118 17.3652 16.3884 15.744 17.3359 14.3438C18.2835 12.9436 19.5711 11.8101 21.0762 11.0518C22.5812 10.2935 24.2541 9.93515 25.9355 10.0098ZM25.9668 13.6621C27.1124 13.7485 28.213 14.1507 29.1465 14.8252C30.08 15.4997 30.8115 16.4203 31.2588 17.4863C31.7061 18.5524 31.8521 19.7227 31.6807 20.8672C31.5092 22.0116 31.0264 23.0858 30.2871 23.9717C29.6549 24.7293 28.8545 25.3214 27.9551 25.708C27.2795 25.2832 26.5037 25.0391 25.7021 25.0039L25.5 25C24.5967 25 23.7537 25.2603 23.042 25.709C21.9984 25.26 21.0926 24.5324 20.4258 23.5996C19.6614 22.5303 19.2496 21.2464 19.25 19.9287C19.2504 18.7713 19.5685 17.6362 20.1689 16.6494C20.7693 15.6627 21.6285 14.8617 22.6514 14.335C23.6741 13.8083 24.8214 13.5758 25.9668 13.6621Z" stroke="#BB97F1" stroke-opacity="0.6" stroke-width="2"/>
</svg>
