<svg width="52" height="52" viewBox="0 0 52 52" fill="none" xmlns="http://www.w3.org/2000/svg">
<path d="M30.8 30.8H37.2L42 42H10L14.8 30.8H21.2M27.6 19.6C27.6 20.0243 27.4314 20.4313 27.1314 20.7314C26.8313 21.0314 26.4243 21.2 26 21.2C25.5757 21.2 25.1687 21.0314 24.8686 20.7314C24.5686 20.4313 24.4 20.0243 24.4 19.6C24.4 19.1757 24.5686 18.7687 24.8686 18.4686C25.1687 18.1686 25.5757 18 26 18C26.4243 18 26.8313 18.1686 27.1314 18.4686C27.4314 18.7687 27.6 19.1757 27.6 19.6ZM16.4 19.6C16.4 27.6 26 35.6 26 35.6C26 35.6 35.6 27.6 35.6 19.6C35.6 14.1328 31.3024 10 26 10C20.6976 10 16.4 14.1328 16.4 19.6Z" stroke="#BB97F1" stroke-opacity="0.6" stroke-width="3"/>
</svg>
