<svg width="32" height="32" viewBox="0 0 32 32" fill="none" xmlns="http://www.w3.org/2000/svg">
<mask id="path-1-inside-1_1261_1965" fill="white">
<path d="M0 16C0 7.16344 7.16344 0 16 0C24.8366 0 32 7.16344 32 16C32 24.8366 24.8366 32 16 32C7.16344 32 0 24.8366 0 16Z"/>
</mask>
<path d="M0 16C0 7.16344 7.16344 0 16 0C24.8366 0 32 7.16344 32 16C32 24.8366 24.8366 32 16 32C7.16344 32 0 24.8366 0 16Z" fill="#111111"/>
<path d="M0 16M32 16M32 16M0 16M16 0M32 16M16 32M0 16M16 32V31.2C7.60527 31.2 0.8 24.3947 0.8 16H0H-0.8C-0.8 25.2784 6.72162 32.8 16 32.8V32ZM32 16H31.2C31.2 24.3947 24.3947 31.2 16 31.2V32V32.8C25.2784 32.8 32.8 25.2784 32.8 16H32ZM16 0V0.8C24.3947 0.8 31.2 7.60527 31.2 16H32H32.8C32.8 6.72162 25.2784 -0.8 16 -0.8V0ZM16 0V-0.8C6.72162 -0.8 -0.8 6.72162 -0.8 16H0H0.8C0.8 7.60527 7.60527 0.8 16 0.8V0Z" fill="#111111" mask="url(#path-1-inside-1_1261_1965)"/>
<path d="M15.8801 21.4469C15.9238 21.5125 15.9895 21.5453 16.077 21.5453C16.1645 21.5453 16.2374 21.5125 16.2957 21.4469L21.5238 16.2297C21.5895 16.1641 21.6223 16.0911 21.6223 16.0109C21.6223 15.9307 21.5895 15.8614 21.5238 15.8031L16.2957 10.575C16.2374 10.5094 16.1645 10.4766 16.077 10.4766C15.9895 10.4766 15.9238 10.5094 15.8801 10.575L15.377 11.0453C15.3113 11.1109 15.2785 11.1857 15.2785 11.2695C15.2785 11.3534 15.3113 11.4208 15.377 11.4719L19.2488 15.3547H10.6957C10.6228 15.3547 10.5553 15.3857 10.4934 15.4476C10.4314 15.5096 10.4004 15.5771 10.4004 15.65V16.35C10.4004 16.4375 10.4314 16.5086 10.4934 16.5633C10.5553 16.618 10.6228 16.6453 10.6957 16.6453H19.2488L15.377 20.55C15.3113 20.601 15.2785 20.6685 15.2785 20.7523C15.2785 20.8362 15.3113 20.9109 15.377 20.9766L15.8801 21.4469Z" fill="white"/>
</svg>
